<mxfile host="app.diagrams.net" agent="Mozilla/5.0 (Macintosh; Intel Mac OS X 10_15_7) AppleWebKit/605.1.15 (KHTML, like Gecko) Version/17.6 Safari/605.1.15" version="25.0.3">
  <diagram name="Σελίδα-1" id="T_3XYmSJssD-ToN54GJW">
    <mxGraphModel dx="3275" dy="2501" grid="1" gridSize="10" guides="1" tooltips="1" connect="1" arrows="1" fold="1" page="1" pageScale="1" pageWidth="827" pageHeight="1169" math="0" shadow="0">
      <root>
        <mxCell id="0" />
        <mxCell id="1" parent="0" />
        <mxCell id="5_4cI_H6_dj6_kQbT12G-96" value="" style="html=1;whiteSpace=wrap;aspect=fixed;shape=isoRectangle;" parent="1" vertex="1">
          <mxGeometry x="842.63" y="-747.09" width="150" height="90" as="geometry" />
        </mxCell>
        <mxCell id="5_4cI_H6_dj6_kQbT12G-2" value="" style="shape=umlActor;verticalLabelPosition=bottom;verticalAlign=top;html=1;outlineConnect=0;fillColor=#dae8fc;gradientColor=#7ea6e0;strokeColor=#6c8ebf;" parent="1" vertex="1">
          <mxGeometry x="-685" y="-531" width="60" height="108" as="geometry" />
        </mxCell>
        <mxCell id="5_4cI_H6_dj6_kQbT12G-3" value="Rest API Backend" style="swimlane;fontStyle=0;childLayout=stackLayout;horizontal=1;startSize=30;horizontalStack=0;resizeParent=1;resizeParentMax=0;resizeLast=0;collapsible=1;marginBottom=0;whiteSpace=wrap;html=1;" parent="1" vertex="1">
          <mxGeometry x="348" y="-820" width="130" height="160" as="geometry" />
        </mxCell>
        <mxCell id="5_4cI_H6_dj6_kQbT12G-5" value="&lt;div&gt;&lt;br&gt;&lt;/div&gt;Rate Limiting,Logging&lt;div&gt;&lt;div&gt;&lt;br&gt;&lt;/div&gt;&lt;div&gt;&lt;br&gt;&lt;/div&gt;&lt;/div&gt;" style="text;strokeColor=none;fillColor=none;align=left;verticalAlign=middle;spacingLeft=4;spacingRight=4;overflow=hidden;points=[[0,0.5],[1,0.5]];portConstraint=eastwest;rotatable=0;whiteSpace=wrap;html=1;" parent="5_4cI_H6_dj6_kQbT12G-3" vertex="1">
          <mxGeometry y="30" width="130" height="40" as="geometry" />
        </mxCell>
        <mxCell id="5_4cI_H6_dj6_kQbT12G-6" value="OAuth 2.0&lt;div&gt;&lt;br&gt;&lt;/div&gt;&lt;div&gt;JWT&lt;/div&gt;&lt;div&gt;&lt;br&gt;&lt;/div&gt;&lt;div&gt;&lt;div&gt;&lt;div&gt;&lt;div&gt;&lt;div&gt;Flask routing&lt;br&gt;&lt;/div&gt;&lt;/div&gt;&lt;/div&gt;&lt;/div&gt;&lt;/div&gt;" style="text;strokeColor=none;fillColor=none;align=left;verticalAlign=middle;spacingLeft=4;spacingRight=4;overflow=hidden;points=[[0,0.5],[1,0.5]];portConstraint=eastwest;rotatable=0;whiteSpace=wrap;html=1;" parent="5_4cI_H6_dj6_kQbT12G-3" vertex="1">
          <mxGeometry y="70" width="130" height="90" as="geometry" />
        </mxCell>
        <mxCell id="5_4cI_H6_dj6_kQbT12G-8" value="" style="outlineConnect=0;dashed=0;verticalLabelPosition=bottom;verticalAlign=top;align=center;html=1;shape=mxgraph.aws3.codecommit;fillColor=#1ba1e2;strokeColor=#006EAF;fontColor=#ffffff;" parent="1" vertex="1">
          <mxGeometry x="1066.74" y="-516" width="76.5" height="93" as="geometry" />
        </mxCell>
        <mxCell id="5_4cI_H6_dj6_kQbT12G-9" value="User&lt;div&gt;&lt;br&gt;&lt;/div&gt;" style="text;html=1;align=center;verticalAlign=middle;resizable=0;points=[];autosize=1;strokeColor=none;fillColor=none;" parent="1" vertex="1">
          <mxGeometry x="-675" y="-565" width="50" height="40" as="geometry" />
        </mxCell>
        <mxCell id="5_4cI_H6_dj6_kQbT12G-11" value="&lt;font style=&quot;font-size: 14px;&quot;&gt;WEB APP&lt;/font&gt;" style="text;strokeColor=none;fillColor=none;html=1;fontSize=24;fontStyle=1;verticalAlign=middle;align=center;" parent="1" vertex="1">
          <mxGeometry x="-524.84" y="-550" width="99" height="40" as="geometry" />
        </mxCell>
        <mxCell id="5_4cI_H6_dj6_kQbT12G-39" value="" style="points=[];aspect=fixed;html=1;align=center;shadow=0;dashed=0;fillColor=#FF6A00;strokeColor=none;shape=mxgraph.alibaba_cloud.cdt_cloud_datatransfer;rotation=0;" parent="1" vertex="1">
          <mxGeometry x="893.26" y="-924.06" width="48.74" height="41.15" as="geometry" />
        </mxCell>
        <mxCell id="5_4cI_H6_dj6_kQbT12G-44" value="&lt;font&gt;/ask endpoint routing&lt;/font&gt;" style="text;strokeColor=none;fillColor=none;html=1;fontSize=14;fontStyle=1;verticalAlign=middle;align=center;" parent="1" vertex="1">
          <mxGeometry x="570" y="-476.5" width="130" height="40" as="geometry" />
        </mxCell>
        <mxCell id="5_4cI_H6_dj6_kQbT12G-46" value="" style="edgeStyle=orthogonalEdgeStyle;rounded=0;orthogonalLoop=1;jettySize=auto;html=1;entryX=0.059;entryY=0.513;entryDx=0;entryDy=0;entryPerimeter=0;flowAnimation=1;curved=0;fontColor=#FF9933;" parent="1" source="5_4cI_H6_dj6_kQbT12G-2" target="5_4cI_H6_dj6_kQbT12G-47" edge="1">
          <mxGeometry relative="1" as="geometry">
            <mxPoint x="-135" y="-365" as="targetPoint" />
            <mxPoint x="-405" y="-379" as="sourcePoint" />
          </mxGeometry>
        </mxCell>
        <mxCell id="5_4cI_H6_dj6_kQbT12G-45" value="" style="sketch=0;outlineConnect=0;fontColor=#232F3E;gradientColor=none;fillColor=#232F3D;strokeColor=none;dashed=0;verticalLabelPosition=bottom;verticalAlign=top;align=center;html=1;fontSize=12;fontStyle=0;aspect=fixed;pointerEvents=1;shape=mxgraph.aws4.chat;" parent="1" vertex="1">
          <mxGeometry x="-374.5" y="-513" width="78" height="68" as="geometry" />
        </mxCell>
        <mxCell id="5_4cI_H6_dj6_kQbT12G-112" style="edgeStyle=orthogonalEdgeStyle;rounded=0;orthogonalLoop=1;jettySize=auto;html=1;flowAnimation=1;" parent="1" source="5_4cI_H6_dj6_kQbT12G-47" target="5_4cI_H6_dj6_kQbT12G-45" edge="1">
          <mxGeometry relative="1" as="geometry" />
        </mxCell>
        <mxCell id="5_4cI_H6_dj6_kQbT12G-47" value="" style="image;aspect=fixed;html=1;points=[];align=center;fontSize=12;image=img/lib/azure2/preview/Static_Apps.svg;" parent="1" vertex="1">
          <mxGeometry x="-515" y="-510" width="79.33" height="63" as="geometry" />
        </mxCell>
        <mxCell id="5_4cI_H6_dj6_kQbT12G-48" value="&lt;span style=&quot;font-size: 14px;&quot;&gt;Query&lt;/span&gt;" style="text;strokeColor=none;fillColor=none;html=1;fontSize=24;fontStyle=1;verticalAlign=middle;align=center;" parent="1" vertex="1">
          <mxGeometry x="-385" y="-556" width="99" height="40" as="geometry" />
        </mxCell>
        <mxCell id="5_4cI_H6_dj6_kQbT12G-55" style="edgeStyle=orthogonalEdgeStyle;rounded=0;orthogonalLoop=1;jettySize=auto;html=1;entryX=0.486;entryY=0.934;entryDx=0;entryDy=0;entryPerimeter=0;flowAnimation=1;" parent="1" target="5_4cI_H6_dj6_kQbT12G-47" edge="1">
          <mxGeometry relative="1" as="geometry">
            <mxPoint x="-275" y="-216" as="targetPoint" />
            <mxPoint x="-425.8299999999999" y="-309" as="sourcePoint" />
          </mxGeometry>
        </mxCell>
        <mxCell id="5_4cI_H6_dj6_kQbT12G-56" value="&lt;font&gt;Generate Hybrid Enhanced answer to user request&lt;/font&gt;" style="text;strokeColor=none;fillColor=none;html=1;fontSize=14;fontStyle=1;verticalAlign=middle;align=center;" parent="1" vertex="1">
          <mxGeometry x="320" y="-417" width="130" height="40" as="geometry" />
        </mxCell>
        <mxCell id="5_4cI_H6_dj6_kQbT12G-60" value="Kubernetes Dockerized APP" style="swimlane;fontStyle=0;childLayout=stackLayout;horizontal=1;startSize=30;horizontalStack=0;resizeParent=1;resizeParentMax=0;resizeLast=0;collapsible=1;marginBottom=0;whiteSpace=wrap;html=1;" parent="1" vertex="1">
          <mxGeometry x="-330" y="-794.8199999999999" width="260" height="91.05" as="geometry" />
        </mxCell>
        <mxCell id="5_4cI_H6_dj6_kQbT12G-58" value="" style="image;sketch=0;aspect=fixed;html=1;points=[];align=center;fontSize=12;image=img/lib/mscae/Docker.svg;" parent="5_4cI_H6_dj6_kQbT12G-60" vertex="1">
          <mxGeometry y="30" width="260" height="61.05" as="geometry" />
        </mxCell>
        <mxCell id="5_4cI_H6_dj6_kQbT12G-73" value="&lt;span style=&quot;caret-color: rgb(0, 0, 0); color: rgb(0, 0, 0); font-family: Helvetica; font-size: 12px; font-style: normal; font-variant-caps: normal; font-weight: 400; letter-spacing: normal; orphans: auto; text-align: center; text-indent: 0px; text-transform: none; white-space: normal; widows: auto; word-spacing: 0px; -webkit-text-stroke-width: 0px; background-color: rgb(251, 251, 251); text-decoration: none; display: inline !important; float: none;&quot;&gt;Qdrant Vector Database&amp;nbsp;&lt;/span&gt;&lt;div&gt;&lt;span style=&quot;caret-color: rgb(0, 0, 0); color: rgb(0, 0, 0); font-family: Helvetica; font-size: 12px; font-style: normal; font-variant-caps: normal; font-weight: 400; letter-spacing: normal; orphans: auto; text-align: center; text-indent: 0px; text-transform: none; white-space: normal; widows: auto; word-spacing: 0px; -webkit-text-stroke-width: 0px; background-color: rgb(251, 251, 251); text-decoration: none; display: inline !important; float: none;&quot;&gt;&lt;br&gt;&lt;/span&gt;&lt;/div&gt;" style="text;whiteSpace=wrap;html=1;" parent="1" vertex="1">
          <mxGeometry x="990.74" y="-850" width="59.26" height="40" as="geometry" />
        </mxCell>
        <mxCell id="5_4cI_H6_dj6_kQbT12G-72" value="" style="sketch=0;outlineConnect=0;fillColor=#ffcd28;strokeColor=#d79b00;dashed=0;verticalLabelPosition=bottom;verticalAlign=top;align=center;html=1;fontSize=12;fontStyle=0;aspect=fixed;pointerEvents=1;shape=mxgraph.aws4.data_lake_resource_icon;gradientColor=#ffa500;" parent="1" vertex="1">
          <mxGeometry x="890" y="-880" width="90" height="90" as="geometry" />
        </mxCell>
        <mxCell id="-kxXGQuX5eWMb9TOzEhN-2" style="edgeStyle=orthogonalEdgeStyle;rounded=0;orthogonalLoop=1;jettySize=auto;html=1;exitX=1;exitY=0.5;exitDx=0;exitDy=0;flowAnimation=1;" parent="1" edge="1">
          <mxGeometry relative="1" as="geometry">
            <mxPoint x="340" y="-732.8571428571429" as="targetPoint" />
            <mxPoint x="240" y="-733" as="sourcePoint" />
          </mxGeometry>
        </mxCell>
        <mxCell id="-kxXGQuX5eWMb9TOzEhN-10" style="edgeStyle=orthogonalEdgeStyle;rounded=0;orthogonalLoop=1;jettySize=auto;html=1;exitX=0.25;exitY=0;exitDx=0;exitDy=0;flowAnimation=1;" parent="1" edge="1">
          <mxGeometry relative="1" as="geometry">
            <mxPoint x="757.7777777777778" y="-666.9999999999998" as="targetPoint" />
            <mxPoint x="757.5" y="-538" as="sourcePoint" />
          </mxGeometry>
        </mxCell>
        <mxCell id="5_4cI_H6_dj6_kQbT12G-81" value="Synthesizer/Controller&lt;div&gt;&lt;br&gt;&lt;/div&gt;" style="label;whiteSpace=wrap;html=1;image=img/clipart/Gear_128x128.png" parent="1" vertex="1">
          <mxGeometry x="710" y="-531" width="190" height="96" as="geometry" />
        </mxCell>
        <mxCell id="5_4cI_H6_dj6_kQbT12G-90" value="&lt;div&gt;Response&lt;br&gt;&lt;/div&gt;" style="shape=display;whiteSpace=wrap;html=1;fillColor=#cce5ff;strokeColor=#36393d;" parent="1" vertex="1">
          <mxGeometry x="-426" y="-340" width="181" height="62" as="geometry" />
        </mxCell>
        <mxCell id="5_4cI_H6_dj6_kQbT12G-95" value="Embedding-ada" style="text;strokeColor=none;fillColor=none;align=left;verticalAlign=top;spacingLeft=4;spacingRight=4;overflow=hidden;rotatable=0;points=[[0,0.5],[1,0.5]];portConstraint=eastwest;whiteSpace=wrap;html=1;" parent="1" vertex="1">
          <mxGeometry x="870" y="-715" width="150" height="43" as="geometry" />
        </mxCell>
        <mxCell id="5_4cI_H6_dj6_kQbT12G-98" style="edgeStyle=orthogonalEdgeStyle;rounded=0;orthogonalLoop=1;jettySize=auto;html=1;exitX=1;exitY=0.5;exitDx=0;exitDy=0;entryX=0;entryY=0.5;entryDx=0;entryDy=0;flowAnimation=1;" parent="1" source="5_4cI_H6_dj6_kQbT12G-6" target="5_4cI_H6_dj6_kQbT12G-81" edge="1">
          <mxGeometry relative="1" as="geometry" />
        </mxCell>
        <mxCell id="5_4cI_H6_dj6_kQbT12G-108" value="" style="image;aspect=fixed;html=1;points=[];align=center;fontSize=12;image=img/lib/azure2/other/Grafana.svg;imageBackground=none;imageBorder=none;" parent="1" vertex="1">
          <mxGeometry x="-630" y="-774.94" width="90" height="69.89" as="geometry" />
        </mxCell>
        <mxCell id="5_4cI_H6_dj6_kQbT12G-110" value="&lt;span style=&quot;font-size: 14px;&quot;&gt;Monitoring Grafana&lt;/span&gt;" style="text;strokeColor=none;fillColor=none;html=1;fontSize=24;fontStyle=1;verticalAlign=middle;align=center;" parent="1" vertex="1">
          <mxGeometry x="-650" y="-831.91" width="148.08" height="40" as="geometry" />
        </mxCell>
        <mxCell id="-kxXGQuX5eWMb9TOzEhN-22" style="edgeStyle=orthogonalEdgeStyle;rounded=0;orthogonalLoop=1;jettySize=auto;html=1;flowAnimation=1;" parent="1" edge="1">
          <mxGeometry relative="1" as="geometry">
            <mxPoint x="-119" y="-698" as="targetPoint" />
            <mxPoint x="-119" y="-563" as="sourcePoint" />
          </mxGeometry>
        </mxCell>
        <mxCell id="5_4cI_H6_dj6_kQbT12G-113" value="" style="aspect=fixed;sketch=0;html=1;dashed=0;whitespace=wrap;verticalLabelPosition=bottom;verticalAlign=top;fillColor=#2875E2;strokeColor=#ffffff;points=[[0.005,0.63,0],[0.1,0.2,0],[0.9,0.2,0],[0.5,0,0],[0.995,0.63,0],[0.72,0.99,0],[0.5,1,0],[0.28,0.99,0]];shape=mxgraph.kubernetes.icon2;kubernetesLabel=1;prIcon=api" parent="1" vertex="1">
          <mxGeometry x="-175.71" y="-565" width="135.42" height="130" as="geometry" />
        </mxCell>
        <mxCell id="5_4cI_H6_dj6_kQbT12G-120" style="edgeStyle=orthogonalEdgeStyle;rounded=0;orthogonalLoop=1;jettySize=auto;html=1;entryX=1.011;entryY=0.591;entryDx=0;entryDy=0;entryPerimeter=0;flowAnimation=1;" parent="1" source="5_4cI_H6_dj6_kQbT12G-58" target="5_4cI_H6_dj6_kQbT12G-108" edge="1">
          <mxGeometry relative="1" as="geometry" />
        </mxCell>
        <mxCell id="jBB7QVOfnN-mEvMkWZ6e-23" style="edgeStyle=orthogonalEdgeStyle;rounded=0;orthogonalLoop=1;jettySize=auto;html=1;exitX=0.75;exitY=1;exitDx=0;exitDy=0;exitPerimeter=0;entryX=1;entryY=1;entryDx=0;entryDy=0;flowAnimation=1;" parent="1" source="5_4cI_H6_dj6_kQbT12G-123" target="5_4cI_H6_dj6_kQbT12G-81" edge="1">
          <mxGeometry relative="1" as="geometry" />
        </mxCell>
        <mxCell id="5_4cI_H6_dj6_kQbT12G-123" value="" style="sketch=0;points=[[0,0,0],[0.25,0,0],[0.5,0,0],[0.75,0,0],[1,0,0],[0,1,0],[0.25,1,0],[0.5,1,0],[0.75,1,0],[1,1,0],[0,0.25,0],[0,0.5,0],[0,0.75,0],[1,0.25,0],[1,0.5,0],[1,0.75,0]];outlineConnect=0;fontColor=#232F3E;fillColor=#01A88D;strokeColor=#ffffff;dashed=0;verticalLabelPosition=bottom;verticalAlign=top;align=center;html=1;fontSize=12;fontStyle=0;aspect=fixed;shape=mxgraph.aws4.resourceIcon;resIcon=mxgraph.aws4.augmented_ai;" parent="1" vertex="1">
          <mxGeometry x="942" y="-516" width="78" height="78" as="geometry" />
        </mxCell>
        <mxCell id="5_4cI_H6_dj6_kQbT12G-125" value="&lt;div&gt;LLM OpenAI gpt4o&lt;/div&gt;&lt;div&gt;&lt;br&gt;&lt;/div&gt;" style="text;strokeColor=none;fillColor=none;align=left;verticalAlign=top;spacingLeft=4;spacingRight=4;overflow=hidden;rotatable=0;points=[[0,0.5],[1,0.5]];portConstraint=eastwest;whiteSpace=wrap;html=1;" parent="1" vertex="1">
          <mxGeometry x="930" y="-410" width="150" height="26" as="geometry" />
        </mxCell>
        <mxCell id="5_4cI_H6_dj6_kQbT12G-126" value="Azure Services&lt;div&gt;&lt;br&gt;&lt;/div&gt;" style="text;strokeColor=none;fillColor=none;align=left;verticalAlign=top;spacingLeft=4;spacingRight=4;overflow=hidden;rotatable=0;points=[[0,0.5],[1,0.5]];portConstraint=eastwest;whiteSpace=wrap;html=1;" parent="1" vertex="1">
          <mxGeometry x="1090" y="-423" width="150" height="26" as="geometry" />
        </mxCell>
        <mxCell id="5_4cI_H6_dj6_kQbT12G-129" style="edgeStyle=orthogonalEdgeStyle;rounded=0;orthogonalLoop=1;jettySize=auto;html=1;exitX=0.5;exitY=1;exitDx=0;exitDy=0;entryX=0.5;entryY=1;entryDx=0;entryDy=0;entryPerimeter=0;flowAnimation=1;" parent="1" source="5_4cI_H6_dj6_kQbT12G-81" target="5_4cI_H6_dj6_kQbT12G-113" edge="1">
          <mxGeometry relative="1" as="geometry" />
        </mxCell>
        <mxCell id="jBB7QVOfnN-mEvMkWZ6e-1" value="&#x9;&lt;span style=&quot;white-space: pre;&quot;&gt;Azure&lt;/span&gt;&amp;nbsp; Keyvault for Security of keys and tokens" style="shape=cube;whiteSpace=wrap;html=1;boundedLbl=1;backgroundOutline=1;darkOpacity=0.05;darkOpacity2=0.1;" parent="1" vertex="1">
          <mxGeometry x="540" y="-634" width="120" height="80" as="geometry" />
        </mxCell>
        <mxCell id="jBB7QVOfnN-mEvMkWZ6e-2" value="" style="outlineConnect=0;dashed=0;verticalLabelPosition=bottom;verticalAlign=top;align=center;html=1;shape=mxgraph.aws3.codecommit;fillColor=#1ba1e2;strokeColor=#006EAF;fontColor=#ffffff;" parent="1" vertex="1">
          <mxGeometry x="1039.48" y="-747.09" width="76.5" height="93" as="geometry" />
        </mxCell>
        <mxCell id="jBB7QVOfnN-mEvMkWZ6e-3" value="" style="points=[];aspect=fixed;html=1;align=center;shadow=0;dashed=0;fillColor=#FF6A00;strokeColor=none;shape=mxgraph.alibaba_cloud.cdt_cloud_datatransfer;rotation=90;" parent="1" vertex="1">
          <mxGeometry x="990.74" y="-722.67" width="48.74" height="41.15" as="geometry" />
        </mxCell>
        <mxCell id="jBB7QVOfnN-mEvMkWZ6e-4" value="Azure Services&lt;div&gt;&lt;br&gt;&lt;/div&gt;" style="text;strokeColor=none;fillColor=none;align=left;verticalAlign=top;spacingLeft=4;spacingRight=4;overflow=hidden;rotatable=0;points=[[0,0.5],[1,0.5]];portConstraint=eastwest;whiteSpace=wrap;html=1;" parent="1" vertex="1">
          <mxGeometry x="1115.98" y="-715.1" width="150" height="26" as="geometry" />
        </mxCell>
        <mxCell id="jBB7QVOfnN-mEvMkWZ6e-6" value="" style="points=[];aspect=fixed;html=1;align=center;shadow=0;dashed=0;fillColor=#FF6A00;strokeColor=none;shape=mxgraph.alibaba_cloud.cdt_cloud_datatransfer;rotation=90;" parent="1" vertex="1">
          <mxGeometry x="1019" y="-490.0799999999999" width="48.74" height="41.15" as="geometry" />
        </mxCell>
        <mxCell id="jBB7QVOfnN-mEvMkWZ6e-11" value="" style="rounded=1;whiteSpace=wrap;html=1;strokeWidth=2;fillWeight=4;hachureGap=8;hachureAngle=45;fillColor=#1ba1e2;sketch=1;glass=1;gradientColor=none;" parent="1" vertex="1">
          <mxGeometry x="770.24" y="-1040" width="291" height="110" as="geometry" />
        </mxCell>
        <mxCell id="jBB7QVOfnN-mEvMkWZ6e-12" value="&lt;div style=&quot;text-align: center;&quot;&gt;Client&#39;s Data Lake. Structured or Unstructured data, from CVs to images or even PDFs&lt;/div&gt;" style="text;whiteSpace=wrap;html=1;" parent="1" vertex="1">
          <mxGeometry x="800" y="-1080" width="250" height="40" as="geometry" />
        </mxCell>
        <mxCell id="jBB7QVOfnN-mEvMkWZ6e-22" style="edgeStyle=orthogonalEdgeStyle;rounded=0;orthogonalLoop=1;jettySize=auto;html=1;exitX=1;exitY=0;exitDx=0;exitDy=0;entryX=0.75;entryY=0;entryDx=0;entryDy=0;entryPerimeter=0;flowAnimation=1;" parent="1" source="5_4cI_H6_dj6_kQbT12G-81" target="5_4cI_H6_dj6_kQbT12G-123" edge="1">
          <mxGeometry relative="1" as="geometry" />
        </mxCell>
        <mxCell id="jBB7QVOfnN-mEvMkWZ6e-25" value="" style="points=[];aspect=fixed;html=1;align=center;shadow=0;dashed=0;fillColor=#FF6A00;strokeColor=none;shape=mxgraph.alibaba_cloud.cdt_cloud_datatransfer;rotation=0;" parent="1" vertex="1">
          <mxGeometry x="894.37" y="-789" width="48.74" height="41.15" as="geometry" />
        </mxCell>
        <mxCell id="-kxXGQuX5eWMb9TOzEhN-5" value="RAG" style="ellipse;shape=cloud;whiteSpace=wrap;html=1;" parent="1" vertex="1">
          <mxGeometry x="690" y="-747.09" width="120" height="80" as="geometry" />
        </mxCell>
        <mxCell id="-kxXGQuX5eWMb9TOzEhN-11" style="edgeStyle=orthogonalEdgeStyle;rounded=0;orthogonalLoop=1;jettySize=auto;html=1;exitX=0.8;exitY=0.8;exitDx=0;exitDy=0;exitPerimeter=0;entryX=0.398;entryY=0.032;entryDx=0;entryDy=0;entryPerimeter=0;flowAnimation=1;" parent="1" source="-kxXGQuX5eWMb9TOzEhN-5" target="5_4cI_H6_dj6_kQbT12G-81" edge="1">
          <mxGeometry relative="1" as="geometry" />
        </mxCell>
        <mxCell id="-kxXGQuX5eWMb9TOzEhN-12" style="edgeStyle=orthogonalEdgeStyle;rounded=0;orthogonalLoop=1;jettySize=auto;html=1;exitX=0.88;exitY=0.25;exitDx=0;exitDy=0;exitPerimeter=0;entryX=0.268;entryY=0.23;entryDx=0;entryDy=0;entryPerimeter=0;flowAnimation=1;" parent="1" source="-kxXGQuX5eWMb9TOzEhN-5" target="5_4cI_H6_dj6_kQbT12G-96" edge="1">
          <mxGeometry relative="1" as="geometry" />
        </mxCell>
        <mxCell id="-kxXGQuX5eWMb9TOzEhN-13" style="edgeStyle=orthogonalEdgeStyle;rounded=0;orthogonalLoop=1;jettySize=auto;html=1;entryX=0.962;entryY=0.562;entryDx=0;entryDy=0;entryPerimeter=0;flowAnimation=1;" parent="1" source="5_4cI_H6_dj6_kQbT12G-96" target="-kxXGQuX5eWMb9TOzEhN-5" edge="1">
          <mxGeometry relative="1" as="geometry" />
        </mxCell>
        <mxCell id="-kxXGQuX5eWMb9TOzEhN-19" style="edgeStyle=orthogonalEdgeStyle;rounded=0;orthogonalLoop=1;jettySize=auto;html=1;flowAnimation=1;" parent="1" source="-kxXGQuX5eWMb9TOzEhN-14" edge="1">
          <mxGeometry relative="1" as="geometry">
            <mxPoint x="180" y="-739.9999999999999" as="targetPoint" />
          </mxGeometry>
        </mxCell>
        <mxCell id="-kxXGQuX5eWMb9TOzEhN-14" value="" style="image;html=1;image=img/lib/clip_art/computers/Server_Rack_128x128.png" parent="1" vertex="1">
          <mxGeometry x="10" y="-780" width="70" height="80" as="geometry" />
        </mxCell>
        <mxCell id="-kxXGQuX5eWMb9TOzEhN-15" value="&lt;span style=&quot;font-size: 14px;&quot;&gt;Nginx (SSL &amp;amp; Load Balancing)&lt;/span&gt;" style="text;strokeColor=none;fillColor=none;html=1;fontSize=24;fontStyle=1;verticalAlign=middle;align=center;" parent="1" vertex="1">
          <mxGeometry x="-1.789999999999992" y="-829" width="99" height="40" as="geometry" />
        </mxCell>
        <mxCell id="-kxXGQuX5eWMb9TOzEhN-16" value="" style="image;aspect=fixed;perimeter=ellipsePerimeter;html=1;align=center;shadow=0;dashed=0;spacingTop=3;image=img/lib/active_directory/generic_server.svg;" parent="1" vertex="1">
          <mxGeometry x="190" y="-780" width="48" height="85.71" as="geometry" />
        </mxCell>
        <mxCell id="-kxXGQuX5eWMb9TOzEhN-17" value="&lt;span style=&quot;font-size: 14px;&quot;&gt;Gunicorn (Multi workers)&lt;/span&gt;&lt;div&gt;&lt;span style=&quot;font-size: 14px;&quot;&gt;&lt;br&gt;&lt;/span&gt;&lt;/div&gt;" style="text;strokeColor=none;fillColor=none;html=1;fontSize=24;fontStyle=1;verticalAlign=middle;align=center;" parent="1" vertex="1">
          <mxGeometry x="197.5" y="-815" width="99" height="40" as="geometry" />
        </mxCell>
        <mxCell id="-kxXGQuX5eWMb9TOzEhN-18" style="edgeStyle=orthogonalEdgeStyle;rounded=0;orthogonalLoop=1;jettySize=auto;html=1;entryX=0.125;entryY=0.571;entryDx=0;entryDy=0;entryPerimeter=0;flowAnimation=1;" parent="1" source="5_4cI_H6_dj6_kQbT12G-58" target="-kxXGQuX5eWMb9TOzEhN-14" edge="1">
          <mxGeometry relative="1" as="geometry" />
        </mxCell>
        <mxCell id="-kxXGQuX5eWMb9TOzEhN-23" style="edgeStyle=orthogonalEdgeStyle;rounded=0;orthogonalLoop=1;jettySize=auto;html=1;entryX=0.079;entryY=0.662;entryDx=0;entryDy=0;entryPerimeter=0;flowAnimation=1;" parent="1" edge="1">
          <mxGeometry relative="1" as="geometry">
            <mxPoint x="-296.6892284543146" y="-503.9999999999998" as="sourcePoint" />
            <mxPoint x="-165.01182000000017" y="-503.94000000000005" as="targetPoint" />
          </mxGeometry>
        </mxCell>
        <mxCell id="-kxXGQuX5eWMb9TOzEhN-24" style="edgeStyle=orthogonalEdgeStyle;rounded=0;orthogonalLoop=1;jettySize=auto;html=1;entryX=1;entryY=0.5;entryDx=0;entryDy=0;entryPerimeter=0;flowAnimation=1;" parent="1" edge="1">
          <mxGeometry relative="1" as="geometry">
            <mxPoint x="-172.71000000000004" y="-481" as="sourcePoint" />
            <mxPoint x="-242" y="-289.9999999999998" as="targetPoint" />
          </mxGeometry>
        </mxCell>
      </root>
    </mxGraphModel>
  </diagram>
</mxfile>
